<?xml version="1.0" encoding="utf-8"?>
<!-- Generator: Adobe Illustrator 21.0.0, SVG Export Plug-In . SVG Version: 6.00 Build 0)  -->
<svg version="1.1" id="Layer_1" xmlns="http://www.w3.org/2000/svg" xmlns:xlink="http://www.w3.org/1999/xlink" x="0px" y="0px"
	 viewBox="0 0 263 170" style="enable-background:new 0 0 263 170;" xml:space="preserve">
<style type="text/css">
	.st0{fill:#035A9D;}
	.st1{fill:#70CFF0;}
	.st2{fill:#F0503B;}
	.st3{fill:#EE4623;}
	.st4{fill:#086AAD;}
	.st5{fill:#131B28;}
	.st6{fill:url(#SVGID_1_);}
	.st7{fill:#34C5EE;}
	.st8{fill:#E8EDF8;}
	.st9{fill:none;stroke:#F0503B;stroke-width:3;stroke-miterlimit:10;}
	.st10{fill:#DFDFDE;}
	.st11{fill:#FFFFFF;stroke:#39519F;stroke-miterlimit:10;}
	.st12{fill:#E44F26;}
	.st13{fill:#F1672A;}
	.st14{fill:#FFFFFF;}
	.st15{fill:#C64427;}
	.st16{fill:#CECECD;}
	.st17{fill:#488FCC;}
	.st18{fill:#FAFBFC;}
	.st19{fill:none;stroke:#34C5EE;stroke-miterlimit:10;}
	.st20{fill:url(#SVGID_2_);}
	.st21{fill:none;stroke:#22759C;stroke-miterlimit:10;}
	.st22{fill:#FFFFFF;stroke:#543C7A;stroke-miterlimit:10;}
	.st23{fill:#FFFFFF;stroke:#086AAD;stroke-miterlimit:10;}
	.st24{fill:#FFFFFF;stroke:#4589C8;stroke-miterlimit:10;}
	.st25{fill:none;stroke:#F0DA21;stroke-miterlimit:10;}
	.st26{fill:#543C7A;}
	.st27{font-family:'MyriadPro-Regular';}
	.st28{font-size:15.5799px;}
	.st29{fill:#F0DA21;}
	.st30{fill:#010101;}
	.st31{fill:none;stroke:#F0503B;stroke-miterlimit:10;}
	.st32{fill:#FFFFFF;stroke:#3C538D;stroke-miterlimit:10;}
	.st33{fill:#FFFFFF;stroke:#34C5EE;stroke-miterlimit:10;}
	.st34{fill:url(#SVGID_3_);}
	.st35{fill:#FFFFFF;stroke:#4A89BE;stroke-miterlimit:10;}
	.st36{fill:#FFFFFF;stroke:#22759C;stroke-miterlimit:10;}
	.st37{fill:#FFFFFF;stroke:#5185B8;stroke-miterlimit:10;}
	.st38{fill:#FFFFFF;stroke:#70CFF0;stroke-miterlimit:10;}
	.st39{fill:none;stroke:#EE4623;stroke-miterlimit:10;}
	.st40{fill:#FFFFFF;stroke:#F0DA21;stroke-miterlimit:10;}
	.st41{fill:#6F81B6;}
	.st42{fill:#01628B;}
	.st43{fill:#E38F25;}
	.st44{fill:none;stroke:#39519F;stroke-miterlimit:10;}
	.st45{fill:url(#SVGID_8_);}
	.st46{fill:#22759C;}
	.st47{fill:none;stroke:#292871;stroke-miterlimit:10;}
	.st48{fill:none;stroke:#4589C8;stroke-miterlimit:10;}
	.st49{fill:#F8BB16;}
	.st50{fill:#32A750;}
	.st51{fill:#4589C8;}
	.st52{fill:none;stroke:#3775A9;stroke-width:3;stroke-miterlimit:10;}
	.st53{fill:#EBEBEB;}
	.st54{fill:#0B74BC;}
	.st55{fill:#EA2F30;}
	.st56{fill:#FFFFFF;stroke:#70CFF0;stroke-width:2;stroke-miterlimit:10;}
	.st57{fill:#FFFFFF;stroke:#F0DA21;stroke-width:2;stroke-miterlimit:10;}
	.st58{fill:none;stroke:#F0DA21;stroke-width:3;stroke-miterlimit:10;}
	.st59{fill:none;stroke:#086AAD;stroke-width:3;stroke-miterlimit:10;}
	.st60{fill:url(#SVGID_13_);}
	.st61{fill:#FFFFFF;stroke:#543C7A;stroke-width:2;stroke-miterlimit:10;}
	.st62{fill:#FFFFFF;stroke:#488FCC;stroke-width:2;stroke-miterlimit:10;}
	.st63{fill:none;stroke:#34C5EE;stroke-width:3;stroke-miterlimit:10;}
	.st64{fill:url(#SVGID_18_);}
	.st65{fill:url(#SVGID_19_);}
	.st66{fill:url(#SVGID_20_);}
	.st67{fill:none;stroke:#70CFF0;stroke-width:3;stroke-miterlimit:10;}
	.st68{fill:#FFFFFF;stroke:#34C5EE;stroke-width:2;stroke-miterlimit:10;}
	.st69{fill:#FFFFFF;stroke:#086AAD;stroke-width:2;stroke-miterlimit:10;}
	.st70{fill:url(#SVGID_21_);}
	.st71{fill:url(#SVGID_22_);}
	.st72{fill:#FFFFFF;stroke:#EE4623;stroke-miterlimit:10;}
	.st73{fill:url(#SVGID_29_);}
	.st74{fill:#FFFFFF;stroke:#4A89BE;stroke-width:2;stroke-miterlimit:10;}
	.st75{fill:#FFFFFF;stroke:#22759C;stroke-width:2;stroke-miterlimit:10;}
	.st76{fill:#FFFFFF;stroke:#EE4623;stroke-width:2;stroke-miterlimit:10;}
	.st77{fill:#FFFFFF;stroke:#5185B8;stroke-width:2;stroke-miterlimit:10;}
	.st78{fill:url(#SVGID_40_);}
</style>
<g>
	<rect x="-1.5" y="-1.3" class="st8" width="266" height="172.5"/>
	<polygon class="st10" points="107.1,84.4 107.1,84.4 107.1,84.4 	"/>
	<path class="st10" d="M107.1,77.1L107.1,77.1L107.1,77.1l0,2.8l0,0V77.1L107.1,77.1z M107.1,70.2L107.1,70.2l0,2.6h0V70.2
		L107.1,70.2z M107.1,64.8L107.1,64.8l0,2.7h0V64.8L107.1,64.8z"/>
	<rect x="99.1" y="11.8" class="st11" width="64.8" height="64.8"/>
	<g>
		<g>
			<polygon class="st12" points="105.1,56.5 102.7,28.7 129.9,28.7 127.4,56.5 116.3,59.6 			"/>
			<polygon class="st13" points="116.3,57.2 125.3,54.7 127.4,31 116.3,31 			"/>
			<path class="st14" d="M116.3,41.3v3.4h4.2l-0.4,4.4l-3.8,1v3.5l7-1.9l0.1-0.6l0.8-9l0.1-0.9h-0.9L116.3,41.3L116.3,41.3z
				 M116.3,34.4v3.4h8.2l0.1-0.8l0.2-1.7l0.1-0.9H116.3L116.3,34.4z"/>
			<path class="st15" d="M116.3,37.8L116.3,37.8h-4.8l0.3,3.5h4.5h0V37.8L116.3,37.8z M116.3,28.7h-13.6l2.5,27.8l11.1,3.1l0,0v-5.9
				l0,0l0,0l-7-1.9l-0.5-5.4h3.4l0.2,2.7l3.8,1l0,0l0,0l0,0v-5.4h-7.6l-0.8-9.4l-0.1-0.9h8.5h0V28.7L116.3,28.7z"/>
			<path class="st16" d="M112.2,46.4h-3.4l0.5,5.4l7,1.9l0,0l0,0l0,0v-3.5l0,0l-3.8-1L112.2,46.4L112.2,46.4z M116.3,34.4h-8.5
				l0.1,0.9l0.8,9.4h7.6h0v-3.4h-4.5l-0.3-3.5h4.8h0V34.4L116.3,34.4z"/>
		</g>
		<g>
			<path class="st17" d="M133.8,29l2.4,27.3l10.8,3l10.8-3l2.4-27.3H133.8z"/>
			<path class="st18" d="M155.2,37.9l-0.3,3.4l-0.9,10.3l-6.9,1.9l0,0l-6.9-1.9l-0.5-5.4h3.4l0.3,2.8l3.7,1l0,0l3.7-1l0.5-4.6
				l-11.8,0l-0.3-3.2l12.4-0.1l0.3-3.4l-13,0l-0.2-3.2h16.8L155.2,37.9z"/>
		</g>
	</g>
	<rect x="16.4" y="11.8" class="st19" width="64.8" height="64.8"/>
	<g>
		
			<radialGradient id="SVGID_1_" cx="-469.277" cy="-157.6541" r="1.714050e-02" gradientTransform="matrix(2291.6716 0 0 -2218.7549 1075468.75 -349765.4375)" gradientUnits="userSpaceOnUse">
			<stop  offset="0" style="stop-color:#35374E;stop-opacity:0.98"/>
			<stop  offset="1" style="stop-color:#131124"/>
		</radialGradient>
		<path class="st6" d="M23,19h51.7v50.3H23V19z"/>
		<path class="st7" d="M23,19h51.7v50.3H23V19z M20.6,71.7H77v-55H20.6V71.7z M58.6,39.2c-1.9,0-2.5,0.9-2.5,1.7
			c0,0.8,0.4,1.4,2.9,2.7c3.7,1.8,4.8,3.5,4.8,6c0,3.8-2.9,5.8-6.7,5.8c-2,0-3.8-0.4-4.8-1c-0.2-0.1-0.2-0.2-0.2-0.4v-3.5
			c0-0.2,0.1-0.3,0.3-0.2c1.5,1,3.2,1.4,4.7,1.4c1.9,0,2.6-0.8,2.6-1.8c0-0.8-0.5-1.6-2.9-2.8c-3.3-1.6-4.7-3.2-4.7-5.9
			c0-3,2.4-5.5,6.5-5.5c2,0,3.4,0.3,4.2,0.7c0.2,0.1,0.2,0.3,0.2,0.5v3.2c0,0.2-0.1,0.3-0.4,0.2C61.7,39.6,60.2,39.2,58.6,39.2
			L58.6,39.2z M38.4,42c0.5,0,1,0,1.9,0c2.7,0,5.3-1,5.3-4.7c0-3-1.9-4.5-5-4.5c-0.9,0-1.8,0-2.3,0.1V42z M34.2,29.6
			c0-0.2,0.3-0.3,0.5-0.3c1.5-0.1,3.7-0.1,6.1-0.1c6.5,0,9,3.6,9,8.1c0,6-4.3,8.5-9.6,8.5c-0.9,0-1.2,0-1.8,0v9
			c0,0.2-0.1,0.3-0.3,0.3h-3.6c-0.2,0-0.3-0.1-0.3-0.3L34.2,29.6L34.2,29.6z"/>
	</g>
	<rect x="16.4" y="93.5" class="st21" width="64.8" height="64.8"/>
	<rect x="181.8" y="11.8" class="st22" width="64.8" height="64.8"/>
	<rect x="99.1" y="93.5" class="st23" width="64.8" height="64.8"/>
	<rect x="181.8" y="93.5" class="st24" width="64.8" height="64.8"/>
	<rect x="16.4" y="93.5" class="st25" width="64.8" height="64.8"/>
	<g>
		<path class="st26" d="M233.1,21.5h-37.8c-2.1,0-3.8,1.7-3.8,3.8V63c0,2.1,1.7,3.8,3.8,3.8h37.8c2.1,0,3.8-1.7,3.8-3.8V25.3
			C236.8,23.2,235.2,21.5,233.1,21.5z M225.2,53.3L225.2,53.3c-0.4,0.9-1,1.7-1.7,2.3c-0.8,0.6-1.8,1.2-3,1.5
			c-1.2,0.4-2.7,0.6-4.4,0.6h-12.1V31.4h12.8c2.4,0,4.3,0.5,5.7,1.6c1.4,1.1,2.1,2.7,2.1,4.9c0,1.3-0.3,2.5-1,3.4
			c-0.6,0.9-1.6,1.7-2.8,2.2v0.1c1.6,0.3,2.9,1.1,3.7,2.3c0.8,1.2,1.2,2.7,1.2,4.5C225.7,51.4,225.5,52.4,225.2,53.3L225.2,53.3z"/>
		<path class="st26" d="M219.3,46.4c-0.8-0.7-1.9-1.1-3.3-1.1h-8.2v8.2h8.2c1.4,0,2.5-0.4,3.3-1.1c0.8-0.7,1.2-1.8,1.2-3.1
			C220.5,48.1,220.1,47.1,219.3,46.4L219.3,46.4z M218.2,41.1L218.2,41.1c0.8-0.6,1.1-1.5,1.1-2.7c0-1.3-0.3-2.3-1-2.8
			c-0.7-0.5-1.6-0.8-2.9-0.8h-7.6V42h7.6C216.5,42,217.5,41.7,218.2,41.1z"/>
	</g>
	<g>
		<path class="st4" d="M115.2,106.8c-3.3,4.8-2.9,11-0.4,16l0.2,0.4l0.1,0.2l0.1,0.1l0.1,0.2c0.1,0.1,0.2,0.3,0.2,0.4l0.1,0.2
			c0.1,0.1,0.2,0.3,0.3,0.4l0.1,0.2c0.1,0.2,0.3,0.4,0.4,0.6l0,0l0.1,0.1c0.1,0.2,0.2,0.3,0.4,0.5l0.1,0.2c0.1,0.1,0.2,0.3,0.3,0.4
			l0.1,0.2c0.2,0.2,0.3,0.4,0.5,0.5l0,0l0,0c0.2,0.2,0.3,0.3,0.5,0.5l0.2,0.2c0.1,0.1,0.3,0.3,0.4,0.4l0.2,0.2
			c0.2,0.2,0.4,0.3,0.5,0.5l0,0l0.1,0.1c0.2,0.1,0.3,0.3,0.5,0.4l0.2,0.2c0.1,0.1,0.3,0.2,0.4,0.3l0.2,0.2c0.1,0.1,0.3,0.2,0.5,0.3
			l0.2,0.1l0,0c0.1,0.1,0.3,0.2,0.4,0.3l0.2,0.1c0.2,0.1,0.5,0.3,0.7,0.4l0.2,0.1c0.2,0.1,0.3,0.2,0.5,0.3l0.3,0.1l0.4,0.2l0.1,0
			l0.2,0.1c0.2,0.1,0.4,0.2,0.6,0.3l0.1,0.1c0.2,0.1,0.5,0.2,0.7,0.3l0.2,0.1c0.2,0.1,0.4,0.2,0.6,0.2l0.1,0
			c0.2,0.1,0.5,0.2,0.7,0.2l0.2,0.1c0.2,0.1,0.5,0.2,0.7,0.2c16,2.9,20.7-9.6,20.7-9.6c-3.9,5.1-10.9,6.4-17.4,4.9
			c-0.2-0.1-0.5-0.1-0.7-0.2L131,129c-0.2-0.1-0.5-0.1-0.7-0.2l-0.1,0c-0.2-0.1-0.4-0.2-0.6-0.2l-0.2-0.1c-0.2-0.1-0.5-0.2-0.7-0.3
			l-0.1-0.1c-0.2-0.1-0.4-0.2-0.6-0.3l-0.2-0.1c-0.1-0.1-0.3-0.1-0.4-0.2l-0.3-0.2c-0.2-0.1-0.4-0.2-0.5-0.3l-0.2-0.1
			c-0.2-0.1-0.5-0.3-0.7-0.4l-0.2-0.1c-0.2-0.1-0.3-0.2-0.5-0.3l-0.2-0.1c-0.2-0.1-0.3-0.2-0.5-0.3l-0.2-0.2
			c-0.1-0.1-0.3-0.2-0.4-0.3l-0.2-0.1c-0.2-0.1-0.3-0.3-0.5-0.4l-0.1,0c-0.2-0.2-0.4-0.3-0.5-0.5l-0.2-0.1c-0.1-0.1-0.3-0.3-0.4-0.4
			l-0.2-0.2c-0.2-0.2-0.3-0.3-0.5-0.5l0,0c-0.2-0.2-0.3-0.4-0.5-0.6l-0.1-0.2c-0.1-0.1-0.2-0.3-0.4-0.4l-0.1-0.2
			c-0.1-0.2-0.3-0.4-0.4-0.5c-3.7-5-5-11.9-2-17.5 M125.4,102.8c-2.4,3.4-2.3,8.1-0.4,11.7c0.3,0.6,0.7,1.2,1.1,1.8
			c0.4,0.5,0.8,1.1,1.2,1.5c0.2,0.2,0.4,0.4,0.5,0.6l0.1,0.1c0.2,0.2,0.4,0.3,0.5,0.5l0,0l0,0c0.2,0.2,0.4,0.4,0.6,0.5l0.1,0.1
			c0.2,0.2,0.4,0.3,0.7,0.5l0,0l0.3,0.2l0.1,0.1c0.2,0.1,0.3,0.2,0.5,0.3l0.1,0c0.1,0.1,0.3,0.2,0.4,0.2l0.2,0.1l0.3,0.2l0,0
			c0.2,0.1,0.4,0.2,0.6,0.3l0.1,0.1c0.2,0.1,0.3,0.1,0.5,0.2l0.2,0.1c0.2,0.1,0.3,0.1,0.5,0.2l0.2,0.1c0.2,0.1,0.5,0.2,0.7,0.2
			c12.4,2.1,15.2-7.5,15.2-7.5c-2.6,3.7-7.6,5.5-12.9,4.1c-0.2-0.1-0.5-0.1-0.7-0.2l-0.2-0.1c-0.2-0.1-0.3-0.1-0.5-0.2l-0.2-0.1
			c-0.2-0.1-0.4-0.1-0.5-0.2l-0.1-0.1c-0.2-0.1-0.4-0.2-0.6-0.3l-0.3-0.2l-0.2-0.1c-0.1-0.1-0.3-0.2-0.4-0.2l-0.1-0.1
			c-0.2-0.1-0.3-0.2-0.5-0.3l-0.1-0.1l-0.3-0.2c-0.2-0.2-0.5-0.3-0.7-0.5l-0.2-0.1c-2.3-1.8-4.2-4.4-5.1-7.2c-0.9-3-0.7-6.3,0.9-9
			 M134.1,99.8c-1.4,2.1-1.6,4.7-0.6,7c1,2.4,3.2,4.4,5.6,5.3l0.3,0.1l0.1,0c0.1,0,0.3,0.1,0.4,0.1c6.8,1.3,8.7-3.5,9.2-4.2
			c-1.6,2.3-4.4,2.9-7.7,2.1c-0.3-0.1-0.6-0.2-0.8-0.3c-0.3-0.1-0.6-0.2-1-0.4c-0.6-0.3-1.2-0.6-1.7-1c-3-2.3-4.9-6.6-2.9-10.1"/>
		<path class="st5" d="M132.6,141h-1.9c-0.1,0-0.2,0.1-0.2,0.2l-0.7,3.1l-0.7,3.1c0,0.1-0.1,0.2-0.2,0.2h-1.3
			c-1.3,0-1.2-0.9-0.9-2.2l0,0l0-0.2l0,0l0.1-0.3l0.1-0.3l0.1-0.4l0.3-1.5l0.3-1.5c0-0.1,0-0.2-0.2-0.2h-2c-0.1,0-0.2,0.1-0.2,0.2
			l-0.4,2l-0.4,2l0,0l0,0.2c-0.5,2.2-0.4,4.3,2.3,4.4l0.1,0h4.1c0.1,0,0.2-0.1,0.2-0.2l0.9-4.2l0.9-4.2
			C132.7,141.1,132.7,141,132.6,141z M112.2,141h-2.1c-0.1,0-0.2,0.1-0.2,0.2l-0.2,0.9l-0.2,0.9c0,0.1,0,0.2,0.2,0.2h2.1
			c0.1,0,0.2-0.1,0.2-0.2l0.2-0.9l0.2-0.9C112.3,141.1,112.3,141,112.2,141z M111.5,143.7h-2.1c-0.1,0-0.2,0.1-0.2,0.2l-0.3,1.3
			l-0.3,1.3l-0.1,0.4l-0.3,1.3l-0.3,1.3c0,0.1-0.1,0.3-0.1,0.4c0,0-0.4,1.2-1.1,1.2l-0.1,0l-0.6,0h0c-0.1,0-0.2,0.1-0.2,0.2
			l-0.2,0.9l-0.2,0.9c0,0.1,0,0.2,0.1,0.2c0.4,0,1.2,0,1.7,0c1.7,0,2.5-0.9,3.1-3.6l0.7-3l0.6-2.8
			C111.7,143.8,111.7,143.7,111.5,143.7z M150.4,143l-0.1-0.4l-0.1-0.4l0-0.2c-0.2-0.7-0.7-1-1.8-1l-1.7,0l-1.6,0h-1.8
			c-0.1,0-0.2,0.1-0.2,0.2l-0.1,0.4L143,142l0,0.1l-0.8,3.7l-0.8,3.5c0,0.1,0,0.2,0,0.3c0,0.1,0.2,0.1,0.3,0.1h1.6
			c0.1,0,0.2,0,0.3,0s0.1-0.2,0.2-0.3l0.3-1.4l0.3-1.4l0,0l0-0.2l0.3-1.6l0.3-1.4c0-0.1,0.1-0.2,0.2-0.2l5,0
			C150.3,143.2,150.4,143.1,150.4,143z M156.8,139.8l-0.4,0h-1.6c-0.1,0-0.2,0.1-0.3,0.2l-3.5,5.2c-0.1,0.1-0.1,0.1-0.2,0l-0.3-1.1
			c0-0.1-0.1-0.2-0.2-0.2h-2.3c-0.1,0-0.2,0.1-0.1,0.2l1,3.6c0,0.1,0,0.3,0,0.4l-0.4,1.7c0,0.1,0,0.2,0.1,0.2h2.2
			c0.1,0,0.2-0.1,0.2-0.2l0.4-1.7c0-0.1,0.1-0.3,0.2-0.3l5.7-7.6c0.1-0.1,0-0.2-0.1-0.2L156.8,139.8z M138.7,144.2L138.7,144.2
			c0,0.1-0.1,0.2-0.2,0.2h-2.9c-0.1,0-0.2-0.1-0.1-0.2l0,0l0,0l0,0l0,0c0.3-0.7,0.8-1.2,1.9-1.2C138.6,143,138.8,143.6,138.7,144.2z
			 M137.9,140.9c-3.7,0-4.6,2.2-5.1,4.5c-0.5,2.3-0.5,4.5,3.4,4.5h0.5l0.1,0h0l0.5,0h0c1,0,2,0,2.4,0c0.1,0,0.2-0.1,0.2-0.2l0.2-0.8
			l0-0.1l0.2-0.9c0-0.1,0-0.2-0.2-0.2h-3.4c-1.4,0-1.8-0.4-1.6-1.4h5.5l0,0l0,0c0.1,0,0.2-0.1,0.2-0.1l0,0l0,0
			C141.6,143,141.4,140.9,137.9,140.9z M120.4,144.2l-0.1,0.2v0l-0.4,1.5l-0.4,1.5c0,0.1-0.1,0.2-0.2,0.2h-2.2
			c-1.7,0-2.1-1.3-1.7-3.2c0.4-2,1.2-3.2,2.8-3.3C120.5,140.8,120.9,142.4,120.4,144.2z M121.9,147.4c0,0,1-2.5,1.3-4
			c0.3-1.9-0.7-4.8-4.4-4.8c-3.7,0-5.4,2.7-6,5.6c-0.6,3,0.2,5.5,3.9,5.5l2.9,0l2.7,0c0.1,0,0.2-0.1,0.2-0.2l0.5-1.8
			c0-0.1,0-0.2-0.1-0.2l-0.5,0l-0.5,0C121.9,147.6,121.9,147.5,121.9,147.4L121.9,147.4z M140.4,145.7c0,0.1-0.1,0.1-0.1,0.1
			c-0.1,0-0.1-0.1-0.1-0.1c0-0.1,0.1-0.1,0.1-0.1C140.4,145.6,140.4,145.7,140.4,145.7z"/>
	</g>
	<g>
		<circle class="st1" cx="195.5" cy="125.8" r="1.7"/>
		<path class="st1" d="M202.1,123c-0.3-0.1-0.7-0.2-1.1-0.4c0.1-0.4,0.2-0.7,0.2-1.1c0.3-2,0-3.5-1-4c-0.3-0.2-0.6-0.2-1-0.2
			c-1.1,0-2.4,0.8-3.8,2.1c-1.4-1.3-2.7-2.1-3.8-2.1c-0.4,0-0.7,0.1-1,0.2c-1,0.6-1.3,2-1,4c0.1,0.4,0.1,0.7,0.2,1.1
			c-0.4,0.1-0.7,0.2-1.1,0.4c-1.9,0.7-3,1.7-3,2.9s1.1,2.1,3,2.9c0.3,0.1,0.7,0.2,1.1,0.4c-0.1,0.4-0.2,0.7-0.2,1.1
			c-0.3,2,0,3.5,1,4c0.3,0.2,0.6,0.2,1,0.2c1.1,0,2.5-0.8,3.8-2.1c1.4,1.3,2.7,2.1,3.8,2.1c0.4,0,0.7-0.1,1-0.2c1-0.6,1.3-2,1-4
			c-0.1-0.4-0.1-0.7-0.2-1.1c0.4-0.1,0.7-0.2,1.1-0.4c1.9-0.7,3-1.7,3-2.9S204,123.7,202.1,123z M199.8,118.3
			c0.6,0.4,0.8,1.5,0.6,3.1c0,0.3-0.1,0.7-0.2,1c-0.8-0.2-1.6-0.3-2.5-0.4c-0.5-0.7-1.1-1.4-1.6-2c1.1-1.1,2.3-1.9,3.2-1.9
			C199.5,118.1,199.7,118.2,199.8,118.3z M198.1,127.4c-0.3,0.5-0.6,1-0.9,1.5c-0.6,0-1.1,0.1-1.7,0.1c-0.6,0-1.2,0-1.7-0.1
			c-0.3-0.5-0.6-1-0.9-1.5c-0.3-0.5-0.6-1-0.8-1.5c0.2-0.5,0.5-1,0.8-1.5c0.3-0.5,0.6-1,0.9-1.5c0.6,0,1.1-0.1,1.7-0.1
			c0.6,0,1.2,0,1.7,0.1c0.3,0.5,0.6,1,0.9,1.5c0.3,0.5,0.6,1,0.8,1.5C198.7,126.3,198.4,126.8,198.1,127.4z M199.4,126.9
			c0.2,0.5,0.4,1.1,0.6,1.6c-0.5,0.1-1.1,0.2-1.7,0.3c0.2-0.3,0.4-0.6,0.6-0.9C199.1,127.5,199.2,127.2,199.4,126.9z M195.5,131
			c-0.4-0.4-0.7-0.8-1.1-1.3c0.4,0,0.7,0,1.1,0c0.4,0,0.7,0,1.1,0C196.2,130.2,195.8,130.6,195.5,131z M192.6,128.7
			c-0.6-0.1-1.1-0.2-1.7-0.3c0.2-0.5,0.4-1,0.6-1.6c0.2,0.3,0.3,0.6,0.5,0.9C192.2,128.1,192.4,128.4,192.6,128.7z M191.5,124.8
			c-0.2-0.5-0.4-1.1-0.6-1.6c0.5-0.1,1.1-0.2,1.7-0.3c-0.2,0.3-0.4,0.6-0.6,0.9C191.9,124.2,191.7,124.5,191.5,124.8z M195.5,120.7
			c0.4,0.4,0.7,0.8,1.1,1.3c-0.4,0-0.7,0-1.1,0c-0.4,0-0.7,0-1.1,0C194.7,121.5,195.1,121.1,195.5,120.7z M198.9,123.9l-0.6-0.9
			c0.6,0.1,1.1,0.2,1.7,0.3c-0.2,0.5-0.4,1-0.6,1.6C199.2,124.5,199.1,124.2,198.9,123.9z M190.5,121.4c-0.3-1.6,0-2.7,0.6-3.1
			c0.2-0.1,0.3-0.1,0.5-0.1c0.9,0,2.1,0.8,3.2,1.9c-0.5,0.6-1.1,1.3-1.6,2c-0.9,0.1-1.7,0.2-2.5,0.4
			C190.6,122,190.6,121.7,190.5,121.4z M186.7,125.8c0-0.7,0.9-1.5,2.4-2.1c0.3-0.1,0.6-0.2,1-0.3c0.2,0.8,0.6,1.6,0.9,2.4
			c-0.4,0.8-0.7,1.6-0.9,2.4C188,127.6,186.7,126.7,186.7,125.8z M191.1,133.4c-0.6-0.4-0.8-1.5-0.6-3.1c0-0.3,0.1-0.7,0.2-1
			c0.8,0.2,1.6,0.3,2.5,0.4c0.5,0.7,1.1,1.4,1.6,2c-1.1,1.1-2.3,1.9-3.2,1.9C191.4,133.5,191.3,133.5,191.1,133.4z M200.4,130.3
			c0.3,1.6,0,2.7-0.6,3.1c-0.2,0.1-0.3,0.1-0.5,0.1c-0.9,0-2.1-0.8-3.2-1.9c0.5-0.6,1.1-1.3,1.6-2c0.9-0.1,1.7-0.2,2.5-0.4
			C200.3,129.6,200.4,130,200.4,130.3z M201.8,127.9c-0.3,0.1-0.6,0.2-1,0.3c-0.2-0.8-0.6-1.6-0.9-2.4c0.4-0.8,0.7-1.6,0.9-2.4
			c2.1,0.6,3.4,1.5,3.4,2.4C204.2,126.6,203.3,127.3,201.8,127.9z"/>
	</g>
	<text transform="matrix(1.0323 0 0 1 205.7354 130.4075)" class="st27 st28">React</text>
	<g>
		<rect x="21.3" y="98.3" class="st29" width="55" height="55"/>
		<path class="st30" d="M66.6,141c-0.6-2.2-5.2-2.7-8.3-5.1c-3.2-2.1-3.9-7.3-1.3-10.2c0.9-1.1,2.4-1.9,3.9-2.3l1.6-0.2
			c3.1-0.1,5.1,0.8,6.5,2.4c0.4,0.4,0.7,0.8,1.3,1.8c-1.7,1-1.7,1-4,2.6c-0.5-1.1-1.3-1.8-2.2-2.1c-1.4-0.4-3.1,0-3.5,1.5
			c-0.1,0.4-0.1,0.9,0.1,1.6c0.6,1.3,2.4,1.8,4.1,2.6c4.8,2,6.5,4.1,6.9,6.6l-0.1-0.2c0.4,2.2-0.1,3.6-0.2,3.8
			c-1.8,6.1-11.8,6.3-15.7,2.3c-0.8-1-1.4-1.4-1.9-2.5l4.2-2.4c1.1,1.7,2.2,2.6,4,3.1C64.7,144.6,67.2,143.7,66.6,141z M39.9,141.8
			c0,0,0.1,0.2,0.3,0.4c0.5,0.9,1,1.5,1.9,2c0.9,0.3,2.8,0.5,3.6-1.1c0.5-0.8,0.3-3.4,0.3-6.2c0-4.4,0-8.9,0-13.3h5.2l0,0.1
			c0,4.7,0,9.5,0,14.2c0,2.9,0.3,5.5-0.9,7.7c-0.8,1.6-2.4,2.7-4.1,3.2c-2.8,0.6-5.4,0.2-7.3-0.9c-1.3-0.8-2.3-2-3-3.5L39.9,141.8z"
			/>
	</g>
</g>
</svg>
