<?xml version="1.0" encoding="utf-8"?>
<!-- Generator: Adobe Illustrator 21.0.0, SVG Export Plug-In . SVG Version: 6.00 Build 0)  -->
<svg version="1.1" id="Layer_1" xmlns="http://www.w3.org/2000/svg" xmlns:xlink="http://www.w3.org/1999/xlink" x="0px" y="0px"
	 viewBox="0 0 265 170" style="enable-background:new 0 0 265 170;" xml:space="preserve">
<style type="text/css">
	.st0{fill:#E8EDF8;}
	.st1{fill:#DFDFDE;}
	.st2{fill:none;stroke:#3C538D;stroke-miterlimit:10;}
	.st3{fill:#E44F26;}
	.st4{fill:#F1672A;}
	.st5{fill:#FFFFFF;}
	.st6{fill:#C64427;}
	.st7{fill:#CECECD;}
	.st8{fill:#488FCC;}
	.st9{fill:#FAFBFC;}
	.st10{fill:none;stroke:#34C5EE;stroke-miterlimit:10;}
	.st11{fill:url(#SVGID_1_);}
	.st12{fill:#34C5EE;}
	.st13{fill:none;stroke:#22759C;stroke-miterlimit:10;}
	.st14{fill:#22759C;}
	.st15{fill:none;stroke:#22759C;stroke-width:3;stroke-miterlimit:10;}
	.st16{fill:none;stroke:#1F1A56;stroke-miterlimit:10;}
	.st17{fill:none;stroke:#5185B8;stroke-miterlimit:10;}
	.st18{fill:#F8BB16;}
	.st19{fill:#32A750;}
	.st20{fill:#4589C8;}
	.st21{fill:none;stroke:#123348;stroke-miterlimit:10;}
	.st22{fill:none;stroke:#543C7A;stroke-miterlimit:10;}
	.st23{fill:#543C7A;}
	.st24{fill:#FFFFFF;stroke:#5185B8;stroke-width:3;stroke-miterlimit:10;}
	.st25{fill:#6F81B6;}
	.st26{fill:#010101;}
	.st27{fill:#01628B;}
	.st28{fill:#E38F25;}
</style>
<rect y="-0.6" class="st0" width="265" height="171.3"/>
<rect x="56.9" y="9.4" class="st24" width="151.1" height="151.1"/>
<g>
	<g>
		<g>
			<defs>
				<path id="SVGID_4_" d="M114.8,89.4c20.2,0,36.5-8.6,36.5-19.2S135,51,114.8,51s-36.5,8.6-36.5,19.2S94.6,89.4,114.8,89.4
					L114.8,89.4z"/>
			</defs>
			<clipPath id="SVGID_1_">
				<use xlink:href="#SVGID_4_"  style="overflow:visible;"/>
			</clipPath>
		</g>
		<g>
			<defs>
				<path id="SVGID_6_" d="M114.8,89.4c20.2,0,36.5-8.6,36.5-19.2S135,51,114.8,51s-36.5,8.6-36.5,19.2S94.6,89.4,114.8,89.4
					L114.8,89.4z"/>
			</defs>
			<clipPath id="SVGID_3_">
				<use xlink:href="#SVGID_6_"  style="overflow:visible;"/>
			</clipPath>
		</g>
		<path class="st25" d="M114.8,88c19.4,0,35.1-8,35.1-17.8s-15.7-17.8-35.1-17.8c-19.4,0-35.1,8-35.1,17.8S95.4,88,114.8,88
			L114.8,88z"/>
		<path class="st5" d="M121.9,75.9l1.7-9c0.4-2,0.1-3.5-1-4.5c-1-0.9-2.7-1.4-5.2-1.4h-3l0.9-4.4c0.1-0.3-0.1-0.6-0.5-0.7
			c0,0-0.1,0-0.1,0h-4.2c-0.3,0-0.5,0.2-0.6,0.5l-1.8,9.5c-0.2-1.1-0.6-2-1.2-2.8c-1.2-1.4-3.2-2.1-5.7-2.1h-8.1
			c-0.3,0-0.5,0.2-0.6,0.5l-3.7,19.3c0,0.2,0,0.3,0.1,0.5c0.1,0.1,0.3,0.2,0.4,0.2h4.2c0.3,0,0.5-0.2,0.6-0.5l0.9-4.7h3.1
			c1.6,0,3-0.2,4.1-0.5c1.1-0.4,2.1-1,3-1.8c0.7-0.7,1.3-1.4,1.8-2.2l-0.7,3.8c0,0.2,0,0.3,0.1,0.5c0.1,0.1,0.3,0.2,0.4,0.2h4.2
			c0.3,0,0.5-0.2,0.6-0.5l2.1-10.6h2.9c1.2,0,1.6,0.2,1.7,0.3c0.1,0.1,0.3,0.4,0.1,1.5l-1.7,8.5c-0.1,0.3,0.1,0.6,0.5,0.7
			c0,0,0.1,0,0.1,0h4.2C121.6,76.4,121.8,76.2,121.9,75.9L121.9,75.9z M102.6,68.5c-0.3,1.3-0.8,2.3-1.5,2.8
			c-0.7,0.6-1.9,0.8-3.4,0.8h-1.9l1.3-6.9h2.4c1.8,0,2.5,0.4,2.8,0.7C102.7,66.4,102.8,67.3,102.6,68.5z M139.4,63.2
			c-1.2-1.4-3.2-2.1-5.7-2.1h-8.1c-0.3,0-0.5,0.2-0.6,0.5l-3.7,19.3c0,0.2,0,0.3,0.1,0.5c0.1,0.1,0.3,0.2,0.4,0.2h4.2
			c0.3,0,0.5-0.2,0.6-0.5l0.9-4.7h3.1c1.6,0,3-0.2,4.1-0.5c1.1-0.4,2.1-1,3-1.8c0.7-0.7,1.4-1.5,1.8-2.3s0.8-1.8,1-2.7
			C141,66.6,140.7,64.6,139.4,63.2L139.4,63.2z M135.3,68.5c-0.3,1.3-0.8,2.3-1.5,2.8c-0.7,0.6-1.9,0.8-3.4,0.8h-1.9l1.3-6.9h2.4
			c1.8,0,2.5,0.4,2.8,0.7C135.5,66.4,135.6,67.3,135.3,68.5L135.3,68.5z"/>
		<path class="st26" d="M99.6,64.7c1.6,0,2.7,0.3,3.2,0.9c0.5,0.6,0.7,1.6,0.4,3c-0.3,1.5-0.8,2.6-1.7,3.2c-0.8,0.6-2.1,1-3.8,1
			h-2.6l1.6-8.1H99.6L99.6,64.7z M89.4,80.9h4.2l1-5.1h3.6c1.6,0,2.9-0.2,3.9-0.5c1-0.3,2-0.9,2.8-1.7c0.7-0.6,1.3-1.4,1.7-2.1
			c0.4-0.8,0.7-1.6,0.9-2.6c0.4-2.3,0.1-4.1-1-5.3c-1.1-1.3-2.9-1.9-5.3-1.9h-8.1L89.4,80.9z M110.6,56.6h4.2l-1,5.1h3.7
			c2.3,0,3.9,0.4,4.8,1.2c0.9,0.8,1.2,2.1,0.8,4l-1.7,9h-4.2l1.7-8.5c0.2-1,0.1-1.6-0.2-2c-0.3-0.4-1-0.5-2.1-0.5h-3.3l-2.1,11h-4.2
			L110.6,56.6z M132.3,64.7c1.6,0,2.7,0.3,3.2,0.9c0.5,0.6,0.7,1.6,0.4,3c-0.3,1.5-0.8,2.6-1.7,3.2c-0.8,0.6-2.1,1-3.8,1h-2.6
			l1.6-8.1H132.3z M122.1,80.9h4.2l1-5.1h3.6c1.6,0,2.9-0.2,3.9-0.5c1-0.3,2-0.9,2.8-1.7c0.7-0.6,1.3-1.4,1.7-2.1s0.7-1.6,0.9-2.6
			c0.4-2.3,0.1-4.1-1-5.3c-1.1-1.3-2.9-1.9-5.3-1.9h-8.1L122.1,80.9L122.1,80.9z"/>
	</g>
	<g>
		<path class="st27" d="M66.4,113.2h4.4V95.9l6.8,15.1c0.8,1.8,1.9,2.5,4,2.5s3.2-0.6,4-2.5l6.8-15.1v17.3h4.4V95.9
			c0-1.7-0.7-2.5-2.1-2.9c-3.3-1-5.6-0.1-6.6,2.1L81.5,110L75,95.1c-1-2.2-3.2-3.1-6.6-2.1c-1.4,0.4-2.1,1.2-2.1,2.9L66.4,113.2
			L66.4,113.2z M100.4,99.1h4.4v9.5c0,0.5,0.2,1.7,2.6,1.8c1.2,0,9.4,0,9.5,0V99.1h4.4c0,0,0,15.5,0,15.5c0,3.8-4.7,4.6-6.9,4.7
			h-13.8v-2.9c0,0,13.8,0,13.9,0c2.8-0.3,2.5-1.7,2.5-2.2v-1.1h-9.3c-4.3,0-7.1-1.9-7.1-4.1C100.4,108.8,100.5,99.2,100.4,99.1z"/>
		<path class="st28" d="M124.6,113.2h12.6c1.5,0,2.9-0.3,4-0.8c1.9-0.9,2.8-2,2.8-3.6v-3.2c0-1.3-1.1-2.4-3.1-3.2
			c-1.1-0.4-2.4-0.6-3.8-0.6h-5.3c-1.8,0-2.6-0.5-2.8-1.7c0-0.1,0-0.3,0-0.4v-2c0-0.1,0-0.2,0-0.4c0.2-0.9,0.7-1.2,2.2-1.3l0.4,0
			h12.5V93H132c-1.8,0-2.7,0.1-3.5,0.4c-2.6,0.8-3.8,2.1-3.8,4.4v2.6c0,2,2.2,3.7,6,4c0.4,0,0.8,0.1,1.3,0.1h4.6c0.2,0,0.3,0,0.5,0
			c1.4,0.1,2,0.4,2.4,0.9c0.3,0.3,0.3,0.5,0.3,0.8v2.6c0,0.3-0.2,0.7-0.6,1c-0.4,0.3-1,0.6-1.9,0.6l-0.5,0h-12.1V113.2z
			 M171.4,108.1c0,3,2.2,4.7,6.7,5c0.4,0,0.8,0.1,1.3,0.1h11.4v-2.9h-11.5c-2.6,0-3.5-0.6-3.5-2.2V93h-4.4L171.4,108.1L171.4,108.1z
			 M146.9,108.3V97.9c0-2.6,1.9-4.2,5.5-4.8c0.4-0.1,0.8-0.1,1.2-0.1h8.3c0.4,0,0.8,0,1.2,0.1c3.7,0.5,5.5,2.1,5.5,4.8v10.4
			c0,2.1-0.8,3.3-2.6,4l4.3,3.9h-5.1l-3.5-3.2l-3.5,0.2h-4.7c-0.8,0-1.6-0.1-2.6-0.4C148.3,112.2,146.9,110.7,146.9,108.3z
			 M151.6,108c0,0.1,0,0.3,0.1,0.5c0.3,1.2,1.4,1.9,3.1,1.9h4l-3.7-3.3h5.1l3.2,2.9c0.6-0.3,1-0.8,1.1-1.4c0-0.1,0-0.3,0-0.4v-10
			c0-0.1,0-0.3,0-0.4c-0.3-1.1-1.4-1.8-3.1-1.8h-6.6c-1.9,0-3.2,0.8-3.2,2.2L151.6,108L151.6,108z"/>
		<path class="st27" d="M194.7,88.1c-2.7-0.1-4.7,0.2-6.5,0.9c-0.5,0.2-1.3,0.2-1.4,0.8c0.3,0.3,0.3,0.7,0.5,1.1
			c0.4,0.7,1.1,1.6,1.8,2.1c0.7,0.5,1.4,1.1,2.1,1.5c1.3,0.8,2.8,1.3,4.1,2.1c0.7,0.5,1.5,1.1,2.2,1.6c0.4,0.3,0.6,0.7,1.1,0.8V99
			c-0.2-0.3-0.3-0.7-0.5-1.1l-1-1c-1-1.3-2.2-2.4-3.5-3.4c-1-0.8-3.4-1.8-3.8-3l-0.1-0.1c0.7-0.1,1.6-0.4,2.3-0.5
			c1.2-0.3,2.2-0.2,3.4-0.5l1.6-0.5v-0.3c-0.6-0.6-1-1.4-1.7-2c-1.7-1.5-3.6-2.9-5.5-4.1c-1.1-0.7-2.4-1.1-3.5-1.7
			c-0.4-0.2-1-0.3-1.3-0.6c-0.6-0.8-0.9-1.7-1.4-2.6c-1-1.9-1.9-3.9-2.8-5.8c-0.6-1.3-1-2.6-1.7-3.8c-3.5-5.7-7.2-9.2-13-12.6
			c-1.2-0.7-2.7-1-4.3-1.4l-2.5-0.2c-0.5-0.2-1-0.8-1.5-1.1c-1.9-1.2-6.8-3.9-8.3-0.4c-0.9,2.2,1.3,4.3,2.1,5.4
			c0.6,0.8,1.3,1.7,1.7,2.5c0.3,0.6,0.3,1.2,0.5,1.8c0.6,1.5,1,3.1,1.8,4.5c0.4,0.7,0.8,1.4,1.2,2.1c0.3,0.4,0.8,0.6,0.8,1.1
			c-0.5,0.7-0.5,1.7-0.8,2.5c-1.2,3.8-0.7,8.5,1,11.3c0.5,0.9,1.8,2.7,3.5,2c1.5-0.6,1.2-2.5,1.6-4.2c0.1-0.4,0-0.7,0.2-0.9v0.1
			l1.4,2.8c1,1.6,2.8,3.4,4.4,4.5c0.8,0.6,1.4,1.6,2.5,2v-0.1h-0.1c-0.2-0.3-0.5-0.4-0.8-0.7c-0.6-0.6-1.3-1.3-1.8-2
			c-1.4-1.9-2.6-4-3.8-6.1c-0.5-1-1-2.2-1.5-3.2c-0.2-0.4-0.2-1-0.5-1.2c-0.5,0.8-1.2,1.4-1.6,2.3c-0.6,1.5-0.7,3.2-0.9,5.1
			l-0.2,0.1c-1.1-0.3-1.4-1.4-1.8-2.3c-1-2.4-1.2-6.2-0.3-9c0.2-0.7,1.3-2.9,0.8-3.6c-0.2-0.7-0.9-1-1.2-1.5
			c-0.5-0.6-0.9-1.4-1.2-2.1c-0.8-1.9-1.2-3.9-2.1-5.8c-0.4-0.9-1.1-1.8-1.7-2.6c-0.6-0.9-1.3-1.5-1.8-2.6c-0.2-0.4-0.4-1-0.2-1.4
			c0.1-0.3,0.2-0.4,0.5-0.5c0.4-0.3,1.7,0.1,2.1,0.3c1.2,0.5,2.3,1,3.3,1.7c0.5,0.3,1,1,1.6,1.1h0.7c1.1,0.2,2.3,0.1,3.3,0.4
			c1.8,0.5,3.4,1.4,4.8,2.3c4.4,2.8,8,6.8,10.5,11.5c0.4,0.8,0.6,1.5,0.9,2.3c0.7,1.6,1.6,3.3,2.3,4.9c0.7,1.6,1.4,3.2,2.4,4.5
			c0.5,0.7,2.5,1.1,3.4,1.5c0.6,0.3,1.7,0.6,2.3,0.9c1.2,0.7,2.3,1.5,3.4,2.3C193,86.6,194.6,87.5,194.7,88.1z M160.5,59
			c-0.6,0-1,0.1-1.4,0.2v0.1h0.1c0.3,0.6,0.7,0.9,1.1,1.4l0.8,1.6l0.1-0.1c0.5-0.3,0.7-0.9,0.7-1.7c-0.2-0.2-0.2-0.5-0.4-0.7
			C161.2,59.4,160.8,59.2,160.5,59z"/>
	</g>
</g>
</svg>
